/* XPM */
static const char *spillwords[] = {
/* columns rows colors chars-per-pixel */
"32 32 4 1",
"  c black",
". c #FF8000",
"X c #808080",
"o c None",
/* pixels */
"oooooooooooooooX.Xoooooooooooooo",
"oooooooooooooX.....Xoooooooooooo",
"oooooooooooX.........Xoooooooooo",
"oooooooooX.............Xoooooooo",
"ooooooooo..X.........X..oooooooo",
"ooooooooo.   X.....X....oooooooo",
"ooooooooo      X.X......oooooooo",
"ooooooooo  ..X  ........oooooooo",
"ooooooooo  ...X X.......oooooooo",
"ooooooooo  ....  .......oooooooo",
"ooooooooo  ..  .........oooooooo",
"oooooooooX X.    .......oooooooo",
"ooooooooo.  X..  .......oooooooo",
"oooooooX.XX     X.......X.Xooooo",
"oooooX.....XX  X......X.....Xooo",
"oooX.........X......X.........Xo",
"oX.............XX.X.............",
"o..X.........X......X.........X.",
"o..  X.....X......   XX.....X...",
"o.     X.X.......      XX.X.....",
"o   .  ..........  ..X  ........",
"o  ...  .........  ...X X.......",
"o    ..  ........  ....  .......",
"o        ........  .............",
"o  ..    ........X X............",
"o  ....  .........  X..  .......",
"o  ....  .......XXX     X.......",
"ooX....  .....XooooXX  X.......X",
"ooooX..  ...XooooooooX.......Xoo",
"ooooooX  .XooooooooooooX...Xoooo",
"oooooooooooooooooooooooooooooooo",
"oooooooooooooooooooooooooooooooo"
};
